2014001_C3_01_grf
version=1
nRows=24
nColumns=19
inDegrees=no
endheader
time	ground_force_1_vx	ground_force_1_vy	ground_force_1_vz	ground_force_1_px	ground_force_1_py	ground_force_1_pz	ground_force_1_mx	ground_force_1_my	ground_force_1_mz	ground_force_2_vx	ground_force_2_vy	ground_force_2_vz	ground_force_2_px	ground_force_2_py	ground_force_2_pz	ground_force_2_mx	ground_force_2_my	ground_force_2_mz
      0.96000000	      0.00000000	      0.00000000	      0.00000000	      0.00000000	      0.00000000	      0.00000000	      0.00000000	      0.00000000	      0.00000000	     31.84085935	    558.91221762	    -28.35871093	      0.15054853	     -0.00200000	      0.88439662	      0.00000000	     -2.39823776	      0.00000000
      0.96100000	      0.00000000	      0.00000000	      0.00000000	      0.00000000	      0.00000000	      0.00000000	      0.00000000	      0.00000000	      0.00000000	     31.88315760	    558.29200149	    -28.11942250	      0.15039233	     -0.00200000	      0.88471001	      0.00000000	     -2.38714580	      0.00000000
      0.96200000	      0.00000000	      0.00000000	      0.00000000	      0.00000000	      0.00000000	      0.00000000	      0.00000000	      0.00000000	      0.00000000	     31.92412853	    557.69401789	    -27.87920274	      0.15023827	     -0.00200000	      0.88501917	      0.00000000	     -2.37577369	      0.00000000
      0.96300000	      0.00000000	      0.00000000	      0.00000000	      0.00000000	      0.00000000	      0.00000000	      0.00000000	      0.00000000	      0.00000000	     31.96339924	    557.12392926	    -27.63766330	      0.15008698	     -0.00200000	      0.88532297	      0.00000000	     -2.36406253	      0.00000000
      0.96400000	      0.00000000	      0.00000000	      0.00000000	      0.00000000	      0.00000000	      0.00000000	      0.00000000	      0.00000000	      0.00000000	     32.00128525	    556.57613277	    -27.39494108	      0.14993792	     -0.00200000	      0.88562240	      0.00000000	     -2.35209121	      0.00000000
      0.96500000	      0.00000000	      0.00000000	      0.00000000	      0.00000000	      0.00000000	      0.00000000	      0.00000000	      0.00000000	      0.00000000	     32.03742933	    556.05623126	    -27.15058997	      0.14979171	     -0.00200000	      0.88591630	      0.00000000	     -2.33981555	      0.00000000
      0.96600000	      0.00000000	      0.00000000	      0.00000000	      0.00000000	      0.00000000	      0.00000000	      0.00000000	      0.00000000	      0.00000000	     32.07218871	    555.55856228	    -26.90481953	      0.14964781	     -0.00200000	      0.88620572	      0.00000000	     -2.32731527	      0.00000000
      0.96700000	      0.00000000	      0.00000000	      0.00000000	      0.00000000	      0.00000000	      0.00000000	      0.00000000	      0.00000000	      0.00000000	     32.10524004	    555.08849025	    -26.65714081	      0.14950682	     -0.00200000	      0.88648949	      0.00000000	     -2.31455760	      0.00000000
      0.96800000	      0.00000000	      0.00000000	      0.00000000	      0.00000000	      0.00000000	      0.00000000	      0.00000000	      0.00000000	      0.00000000	     32.13694841	    554.64041233	    -26.40783228	      0.14936818	     -0.00200000	      0.88676871	      0.00000000	     -2.30161104	      0.00000000
      0.96900000	      0.00000000	      0.00000000	      0.00000000	      0.00000000	      0.00000000	      0.00000000	      0.00000000	      0.00000000	      0.00000000	     32.16702305	    554.21951413	    -26.15636028	      0.14923249	     -0.00200000	      0.88704221	      0.00000000	     -2.28844988	      0.00000000
      0.97000000	      0.00000000	      0.00000000	      0.00000000	      0.00000000	      0.00000000	      0.00000000	      0.00000000	      0.00000000	      0.00000000	     32.19583035	    553.82019281	    -25.90305731	      0.14909917	     -0.00200000	      0.88731110	      0.00000000	     -2.27513165	      0.00000000
      0.97100000	      0.00000000	      0.00000000	      0.00000000	      0.00000000	      0.00000000	      0.00000000	      0.00000000	      0.00000000	      0.00000000	     32.22311996	    553.44754457	    -25.64736176	      0.14896881	     -0.00200000	      0.88757421	      0.00000000	     -2.26163555	      0.00000000
      0.97200000	      0.00000000	      0.00000000	      0.00000000	      0.00000000	      0.00000000	      0.00000000	      0.00000000	      0.00000000	      0.00000000	     32.24924915	    553.09593678	    -25.38967878	      0.14884083	     -0.00200000	      0.88783271	      0.00000000	     -2.24801073	      0.00000000
      0.97300000	      0.00000000	      0.00000000	      0.00000000	      0.00000000	      0.00000000	      0.00000000	      0.00000000	      0.00000000	      0.00000000	     32.27400277	    552.77040601	    -25.12943186	      0.14871585	     -0.00200000	      0.88808541	      0.00000000	     -2.23423952	      0.00000000
      0.97400000	      0.00000000	      0.00000000	      0.00000000	      0.00000000	      0.00000000	      0.00000000	      0.00000000	      0.00000000	      0.00000000	     32.29771331	    552.46543884	    -24.86707829	      0.14859329	     -0.00200000	      0.88833351	      0.00000000	     -2.22036352	      0.00000000
      0.97500000	      0.00000000	      0.00000000	      0.00000000	      0.00000000	      0.00000000	      0.00000000	      0.00000000	      0.00000000	      0.00000000	     32.32019823	    552.18571424	    -24.60203040	      0.14847373	     -0.00200000	      0.88857586	      0.00000000	     -2.20637032	      0.00000000
      0.97600000	      0.00000000	      0.00000000	      0.00000000	      0.00000000	      0.00000000	      0.00000000	      0.00000000	      0.00000000	      0.00000000	     32.34176785	    551.92589760	    -24.33478460	      0.14835660	     -0.00200000	      0.88881364	      0.00000000	     -2.19229577	      0.00000000
      0.97700000	      0.00000000	      0.00000000	      0.00000000	      0.00000000	      0.00000000	      0.00000000	      0.00000000	      0.00000000	      0.00000000	     32.36229047	    551.69048905	    -24.06474948	      0.14824250	     -0.00200000	      0.88904574	      0.00000000	     -2.17813354	      0.00000000
      0.97800000	      0.00000000	      0.00000000	      0.00000000	      0.00000000	      0.00000000	      0.00000000	      0.00000000	      0.00000000	      0.00000000	     32.38204904	    551.47421360	    -23.79245684	      0.14813081	     -0.00200000	      0.88927331	      0.00000000	     -2.16391135	      0.00000000
      0.97900000	      0.00000000	      0.00000000	      0.00000000	      0.00000000	      0.00000000	      0.00000000	      0.00000000	      0.00000000	      0.00000000	     32.40096141	    551.28130317	    -23.51731528	      0.14802211	     -0.00200000	      0.88949529	      0.00000000	     -2.14962660	      0.00000000
      0.98000000	      0.00000000	      0.00000000	      0.00000000	      0.00000000	      0.00000000	      0.00000000	      0.00000000	      0.00000000	      0.00000000	     32.41927400	    551.10663176	    -23.23987521	      0.14791579	     -0.00200000	      0.88971282	      0.00000000	     -2.13529945	      0.00000000
      0.98100000	      0.00000000	      0.00000000	      0.00000000	      0.00000000	      0.00000000	      0.00000000	      0.00000000	      0.00000000	      0.00000000	     32.43694380	    550.95413327	    -22.95954525	      0.14781239	     -0.00200000	      0.88992483	      0.00000000	     -2.12093043	      0.00000000
      0.98200000	      0.00000000	      0.00000000	      0.00000000	      0.00000000	      0.00000000	      0.00000000	      0.00000000	      0.00000000	      0.00000000	     32.45417550	    550.81886053	    -22.67690562	      0.14771129	     -0.00200000	      0.89013248	      0.00000000	     -2.10653451	      0.00000000
      0.98300000	      0.00000000	      0.00000000	      0.00000000	      0.00000000	      0.00000000	      0.00000000	      0.00000000	      0.00000000	      0.00000000	     32.47095346	    550.70447922	    -22.39139192	      0.14761303	     -0.00200000	      0.89033473	      0.00000000	     -2.09211423	      0.00000000
